<svg xmlns="http://www.w3.org/2000/svg" fill="none" viewBox="0 0 512 512"><defs><linearGradient id="chipGrad" x1="0%" x2="100%" y1="0%" y2="100%"><stop offset="0%" stop-color="#6366f1"/><stop offset="100%" stop-color="#8b5cf6"/></linearGradient><linearGradient id="brainGrad" x1="0%" x2="100%" y1="0%" y2="100%"><stop offset="0%" stop-color="#22d3ee"/><stop offset="100%" stop-color="#a78bfa"/></linearGradient><linearGradient id="bgGrad" x1="0%" x2="100%" y1="0%" y2="100%"><stop offset="0%" stop-color="#0f172a"/><stop offset="100%" stop-color="#1e1b4b"/></linearGradient></defs><rect width="480" height="480" x="16" y="16" fill="url(#bgGrad)" rx="96"/><rect width="240" height="240" x="136" y="136" fill="url(#chipGrad)" opacity=".9" rx="24"/><rect width="16" height="56" x="188" y="96" fill="#818cf8" rx="4"/><rect width="16" height="56" x="228" y="96" fill="#818cf8" rx="4"/><rect width="16" height="56" x="268" y="96" fill="#818cf8" rx="4"/><rect width="16" height="56" x="308" y="96" fill="#818cf8" rx="4"/><rect width="16" height="56" x="188" y="360" fill="#818cf8" rx="4"/><rect width="16" height="56" x="228" y="360" fill="#818cf8" rx="4"/><rect width="16" height="56" x="268" y="360" fill="#818cf8" rx="4"/><rect width="16" height="56" x="308" y="360" fill="#818cf8" rx="4"/><rect width="56" height="16" x="96" y="188" fill="#818cf8" rx="4"/><rect width="56" height="16" x="96" y="228" fill="#818cf8" rx="4"/><rect width="56" height="16" x="96" y="268" fill="#818cf8" rx="4"/><rect width="56" height="16" x="96" y="308" fill="#818cf8" rx="4"/><rect width="56" height="16" x="360" y="188" fill="#818cf8" rx="4"/><rect width="56" height="16" x="360" y="228" fill="#818cf8" rx="4"/><rect width="56" height="16" x="360" y="268" fill="#818cf8" rx="4"/><rect width="56" height="16" x="360" y="308" fill="#818cf8" rx="4"/><rect width="160" height="160" x="176" y="176" fill="#1e1b4b" opacity=".6" rx="16"/><circle cx="226" cy="226" r="10" fill="url(#brainGrad)" opacity=".9"/><circle cx="286" cy="226" r="10" fill="url(#brainGrad)" opacity=".9"/><circle cx="256" cy="256" r="14" fill="url(#brainGrad)"/><circle cx="226" cy="286" r="10" fill="url(#brainGrad)" opacity=".9"/><circle cx="286" cy="286" r="10" fill="url(#brainGrad)" opacity=".9"/><circle cx="196" cy="256" r="7" fill="#22d3ee" opacity=".7"/><circle cx="316" cy="256" r="7" fill="#22d3ee" opacity=".7"/><circle cx="256" cy="196" r="7" fill="#22d3ee" opacity=".7"/><circle cx="256" cy="316" r="7" fill="#22d3ee" opacity=".7"/><line x1="226" x2="286" y1="226" y2="226" stroke="#22d3ee" stroke-width="2" opacity=".5"/><line x1="226" x2="286" y1="286" y2="286" stroke="#22d3ee" stroke-width="2" opacity=".5"/><line x1="226" x2="226" y1="226" y2="286" stroke="#22d3ee" stroke-width="2" opacity=".5"/><line x1="286" x2="286" y1="226" y2="286" stroke="#22d3ee" stroke-width="2" opacity=".5"/><line x1="226" x2="256" y1="226" y2="256" stroke="#a78bfa" stroke-width="2.5" opacity=".7"/><line x1="286" x2="256" y1="226" y2="256" stroke="#a78bfa" stroke-width="2.5" opacity=".7"/><line x1="226" x2="256" y1="286" y2="256" stroke="#a78bfa" stroke-width="2.5" opacity=".7"/><line x1="286" x2="256" y1="286" y2="256" stroke="#a78bfa" stroke-width="2.5" opacity=".7"/><line x1="196" x2="226" y1="256" y2="226" stroke="#22d3ee" stroke-width="1.5" opacity=".4"/><line x1="196" x2="226" y1="256" y2="286" stroke="#22d3ee" stroke-width="1.5" opacity=".4"/><line x1="316" x2="286" y1="256" y2="226" stroke="#22d3ee" stroke-width="1.5" opacity=".4"/><line x1="316" x2="286" y1="256" y2="286" stroke="#22d3ee" stroke-width="1.5" opacity=".4"/><line x1="256" x2="226" y1="196" y2="226" stroke="#22d3ee" stroke-width="1.5" opacity=".4"/><line x1="256" x2="286" y1="196" y2="226" stroke="#22d3ee" stroke-width="1.5" opacity=".4"/><line x1="256" x2="226" y1="316" y2="286" stroke="#22d3ee" stroke-width="1.5" opacity=".4"/><line x1="256" x2="286" y1="316" y2="286" stroke="#22d3ee" stroke-width="1.5" opacity=".4"/><circle cx="256" cy="256" r="22" fill="#22d3ee" opacity=".12"/><circle cx="380" cy="380" r="52" fill="#10b981"/><circle cx="380" cy="380" r="46" fill="#059669"/><polyline fill="none" stroke="#fff" stroke-linecap="round" stroke-linejoin="round" stroke-width="8" points="356 380 374 398 406 362"/></svg>